<svg xmlns="http://www.w3.org/2000/svg" width="673.035" height="494.2" viewBox="0 0 673.035 494.2"><g id="Group_84" data-name="Group 84" transform="translate(0)"><path id="Path_321" fill="#f2f2f2" d="M207.132,74.868l-35.167,57.479a43.468,43.468,0,0,1-45.355,74.131L89.219,267.593l360.728,220.7L567.86,295.568Z" data-name="Path 321" transform="translate(-89.154 -74.868)"/><circle id="Ellipse_68" cx="28.324" cy="28.324" r="28.324" fill="#f2f2f2" data-name="Ellipse 68" transform="translate(36.07 65.602)"/><ellipse id="Ellipse_69" cx="100.123" cy="6.587" fill="#f2f2f2" data-name="Ellipse 69" rx="100.123" ry="6.587" transform="translate(227.093 460.164)"/><ellipse id="Ellipse_70" cx="46.768" cy="3.077" fill="#f2f2f2" data-name="Ellipse 70" rx="46.768" ry="3.077" transform="translate(111.162 488.046)"/><ellipse id="Ellipse_71" cx="100.123" cy="6.587" fill="#f2f2f2" data-name="Ellipse 71" rx="100.123" ry="6.587" transform="translate(426.021 445.014)"/><line id="Line_18" x2="668.582" fill="none" stroke="#2f2e41" stroke-miterlimit="10" stroke-width="2" data-name="Line 18" transform="translate(4.452 441.062)"/><rect id="Rectangle_257" width="480.852" height="324.74" fill="#3f3d56" data-name="Rectangle 257" transform="translate(120.713 115.993)"/><line id="Line_19" x2="480.852" fill="none" stroke="#2f2e41" stroke-miterlimit="10" stroke-width="2" data-name="Line 19" transform="translate(120.713 139.745)"/><circle id="Ellipse_72" cx="5.928" cy="5.928" r="5.928" fill="#6c63ff" data-name="Ellipse 72" transform="translate(129.606 121.921)"/><circle id="Ellipse_73" cx="5.928" cy="5.928" r="5.928" fill="#6c63ff" data-name="Ellipse 73" transform="translate(147.39 122.25)"/><circle id="Ellipse_74" cx="5.928" cy="5.928" r="5.928" fill="#6c63ff" data-name="Ellipse 74" transform="translate(165.175 122.58)"/><rect id="Rectangle_258" width="405.76" height="79.044" fill="#6c63ff" data-name="Rectangle 258" opacity=".3" transform="translate(150.684 161.772)"/><line id="Line_20" x2="405.76" y1="79.044" fill="none" stroke="#6c63ff" stroke-miterlimit="10" stroke-width="2" data-name="Line 20" opacity=".3" transform="translate(150.684 161.772)"/><line id="Line_21" x1="405.76" y1="79.044" fill="none" stroke="#6c63ff" stroke-miterlimit="10" stroke-width="2" data-name="Line 21" opacity=".3" transform="translate(150.684 161.772)"/><rect id="Rectangle_259" width="96.829" height="127.129" fill="#6c63ff" data-name="Rectangle 259" opacity=".3" transform="translate(150.684 290.878)"/><rect id="Rectangle_260" width="96.829" height="127.129" fill="#6c63ff" data-name="Rectangle 260" opacity=".3" transform="translate(459.615 290.878)"/><rect id="Rectangle_261" width="96.829" height="127.129" fill="#6c63ff" data-name="Rectangle 261" opacity=".3" transform="translate(305.149 290.878)"/><line id="Line_22" x2="96.829" y2="127.129" fill="none" stroke="#6c63ff" stroke-miterlimit="10" stroke-width="2" data-name="Line 22" opacity=".3" transform="translate(150.684 290.878)"/><line id="Line_23" x1="96.829" y2="127.129" fill="none" stroke="#6c63ff" stroke-miterlimit="10" stroke-width="2" data-name="Line 23" opacity=".3" transform="translate(150.684 290.878)"/><line id="Line_24" x2="96.829" y2="127.129" fill="none" stroke="#6c63ff" stroke-miterlimit="10" stroke-width="2" data-name="Line 24" opacity=".3" transform="translate(305.479 290.878)"/><line id="Line_25" x1="96.829" y2="127.129" fill="none" stroke="#6c63ff" stroke-miterlimit="10" stroke-width="2" data-name="Line 25" opacity=".3" transform="translate(305.479 290.878)"/><line id="Line_26" x2="96.829" y2="127.129" fill="none" stroke="#6c63ff" stroke-miterlimit="10" stroke-width="2" data-name="Line 26" opacity=".3" transform="translate(459.615 290.878)"/><line id="Line_27" x1="96.829" y2="127.129" fill="none" stroke="#6c63ff" stroke-miterlimit="10" stroke-width="2" data-name="Line 27" opacity=".3" transform="translate(459.615 290.878)"/><rect id="Rectangle_262" width="405.76" height="79.044" fill="#6c63ff" data-name="Rectangle 262" transform="translate(204.698 161.772)"/><rect id="Rectangle_263" width="96.829" height="127.129" fill="#6c63ff" data-name="Rectangle 263" transform="translate(478.059 321.178)"/><rect id="Rectangle_264" width="68.505" height="7.904" fill="#3f3d56" data-name="Rectangle 264" transform="translate(492.221 337.975)"/><rect id="Rectangle_265" width="68.505" height="7.904" fill="#3f3d56" data-name="Rectangle 265" transform="translate(492.221 355.101)"/><rect id="Rectangle_266" width="68.505" height="7.904" fill="#3f3d56" data-name="Rectangle 266" transform="translate(492.221 372.228)"/><rect id="Rectangle_267" width="68.505" height="7.904" fill="#3f3d56" data-name="Rectangle 267" transform="translate(492.221 389.354)"/><rect id="Rectangle_268" width="68.505" height="7.904" fill="#3f3d56" data-name="Rectangle 268" transform="translate(492.221 406.48)"/><rect id="Rectangle_269" width="68.505" height="7.904" fill="#3f3d56" data-name="Rectangle 269" transform="translate(492.221 423.606)"/><rect id="Rectangle_270" width="96.829" height="127.129" fill="#6c63ff" data-name="Rectangle 270" transform="translate(174.397 308.004)"/><rect id="Rectangle_271" width="68.505" height="7.904" fill="#3f3d56" data-name="Rectangle 271" transform="translate(188.559 350.49)"/><rect id="Rectangle_272" width="68.505" height="7.904" fill="#3f3d56" data-name="Rectangle 272" transform="translate(188.559 367.617)"/><rect id="Rectangle_273" width="68.505" height="7.904" fill="#3f3d56" data-name="Rectangle 273" transform="translate(188.559 384.743)"/><path id="Path_322" fill="#3f3d56" d="M717.349,373.406c0,14.8-8.8,19.968-19.652,19.968q-.377,0-.753-.008c-.5-.011-1-.035-1.493-.068-9.8-.693-17.405-6.127-17.405-19.891,0-14.244,18.2-32.219,19.57-33.549l0,0,.079-.077S717.349,358.606,717.349,373.406Z" data-name="Path 322" transform="translate(-290.12 -165.281)"/><path id="Path_323" fill="#6c63ff" d="M702.7,391.11l7.188-10.043-7.206,11.146-.019,1.153c-.5-.011-1-.035-1.493-.068l.775-14.807-.006-.115.013-.022.073-1.4L694.8,365.782l7.246,10.125.017.3.586-11.188-6.184-11.546,6.26,9.582.609-23.194,0-.079v.077l-.1,18.29,6.157-7.251-6.182,8.826-.163,10.017,5.748-9.613-5.772,11.087-.091,5.569,8.345-13.38L702.9,378.724Z" data-name="Path 323" transform="translate(-295.838 -165.282)"/><circle id="Ellipse_75" cx="15.435" cy="15.435" r="15.435" fill="#2f2e41" data-name="Ellipse 75" transform="translate(38.731 208.022)"/><path id="Path_324" fill="#a0616a" d="M158.629,429.707s.232,9.528-.7,9.76,12.781,3.951,12.781,3.951l1.394-13.013Z" data-name="Path 324" transform="translate(-112.59 -195.974)"/><path id="Path_325" fill="#a0616a" d="M323.252,552.535s10.225,0,10.457-1.162,2.324,9.528,2.324,9.528L331.85,562.3s-7.9-3.486-8.6-3.486S323.252,552.535,323.252,552.535Z" data-name="Path 325" transform="translate(-168.923 -237.468)"/><path id="Path_326" fill="#2f2e41" d="M338.18,550.237s-1.859-6.274-4.183-6.507c0,0,7.9-5.112,8.133-6.739s3.021-5.81,4.183-4.415,1.162,23.471-.93,25.794S334,555.1,334,555.1,339.807,552.561,338.18,550.237Z" data-name="Path 326" transform="translate(-172.696 -230.987)"/><path id="Path_327" fill="#a0616a" d="M58.7,619.783l-1.859,9.992,8.6,1.394V619.783Z" data-name="Path 327" transform="translate(-19.4 -211.531)"/><path id="Path_328" fill="#2f2e41" d="M146.482,706.092s-1.394-4.415-2.324-3.718-2.324,5.112-2.091,6.274,1.859,10.225,1.162,11.851,3.486,9.992,8.831,9.3,4.88-5.345,4.88-5.345l-1.859-7.2-.7-11.387S148.341,704.93,146.482,706.092Z" data-name="Path 328" transform="translate(-107.182 -289.009)"/><circle id="Ellipse_76" cx="6.387" cy="6.387" r="6.387" fill="#2f2e41" data-name="Ellipse 76" transform="translate(42.379 200.825)"/><path id="Path_329" fill="#2f2e41" d="M149.537,380.883a6.388,6.388,0,0,1,5.721-6.352,6.387,6.387,0,1,0,0,12.7,6.388,6.388,0,0,1-5.722-6.352Z" data-name="Path 329" transform="translate(-109.286 -177.13)"/><circle id="Ellipse_77" cx="9.76" cy="9.76" r="9.76" fill="#a0616a" data-name="Ellipse 77" transform="translate(44.413 220.72)"/><path id="Path_330" fill="#2f2e41" d="M142.08,527.156s.465,11.619,2.324,17.661,8.561,49.071,7.167,52.324-8.561,39.234-6.935,41.326,9.3,1.394,9.3,1.394l10.42-43.649s-2.055-48.142,15.142-49.3,45.315-1.859,45.315-1.859,18.126,5.345,26.259,5.112,12.781,2.091,12.781,2.091l1.394-9.528-36.019-7.9s-33-11.387-51.124-8.366A139.508,139.508,0,0,1,142.08,527.156Z" data-name="Path 330" transform="translate(-107.195 -228.821)"/><path id="Path_331" fill="#d0cde1" d="M150.157,439.563s-2.789-1.627-3.486,0-5.577,3.021-7.436,1.627-6.507.465-6.507.465l-5.112,15.1s2.556,13.013,4.88,20.217,3.253,22.076,2.324,23.471,18.591,6.971,28.118,3.486,11.619-7.436,11.619-7.436-10.457-14.872-6.971-21.844.7-14.872.7-14.872l1.394-7.9-7.9-4.415s-.465-4.183-2.324-4.183S150.157,439.563,150.157,439.563Z" data-name="Path 331" transform="translate(-102.259 -199.091)"/><path id="Path_332" fill="#d0cde1" d="M184.734,458.988h3.486a7.8,7.8,0,0,1,2.324,7.2c-.93,4.415-5.122,19.053-5.122,19.053l-3.477-9.061Z" data-name="Path 332" transform="translate(-120.801 -205.968)"/><path id="Path_333" fill="#a0616a" d="M199.028,515.644s6.954,7.531,1.842,11.481-6.372-9.063-6.372-9.063Z" data-name="Path 333" transform="translate(-125.085 -225.304)"/><path id="Path_334" fill="#d0cde1" d="M186,491.8l1.627,6.507,2.789,5.112s9.528,6.274,9.528,8.6c0,0-4.183-5.345-9.528,0l-4.764-11.5Z" data-name="Path 334" transform="translate(-122.066 -217.166)"/><ellipse id="Ellipse_78" cx="10.645" cy="6.387" fill="#2f2e41" data-name="Ellipse 78" rx="10.645" ry="6.387" transform="translate(45.316 213.798)"/><path id="Path_335" fill="#a0616a" d="M142.08,408.781s7.436-4.183,10.457-1.162-9.063,7.669-9.063,7.669Z" data-name="Path 335" transform="translate(-107.195 -188.061)"/><path id="Path_336" fill="#d0cde1" d="M121.217,432.091l-1.627-1.162s-1.859-2.789-3.486-1.859-11.154-3.486-11.154-3.486,3.486,1.627,3.486-1.162.465-2.324,2.789-2.324,2.324,1.162,3.253-.465.465-2.556,2.091-1.627a3.261,3.261,0,0,0,3.951-.465c.465-.7,8.831-1.859,8.831-1.859s-3.253-9.528-3.951-10.225-18.591,7.2-18.591,7.2-22.541,6.274-16.731,13.478S116.8,446.267,116.8,446.267Z" data-name="Path 336" transform="translate(-89.12 -188.366)"/><rect id="Rectangle_274" width="96.829" height="127.129" fill="#6c63ff" data-name="Rectangle 274" transform="translate(283.742 339.622)"/><rect id="Rectangle_275" width="43.474" height="43.474" fill="#3f3d56" data-name="Rectangle 275" transform="translate(310.419 359.712)"/><rect id="Rectangle_276" width="76.409" height="5.27" fill="#3f3d56" data-name="Rectangle 276" transform="translate(293.952 412.408)"/><rect id="Rectangle_277" width="76.409" height="5.27" fill="#3f3d56" data-name="Rectangle 277" transform="translate(293.952 426.9)"/><rect id="Rectangle_278" width="76.409" height="5.27" fill="#3f3d56" data-name="Rectangle 278" transform="translate(293.952 441.391)"/><path id="Path_337" fill="#6c63ff" d="M338.537,788.587c0,9.6-5.709,12.958-12.753,12.958q-.245,0-.489-.005c-.326-.007-.65-.023-.969-.044-6.357-.45-11.3-3.976-11.3-12.908,0-9.244,11.813-20.908,12.7-21.771l0,0,.051-.05S338.537,778.983,338.537,788.587Z" data-name="Path 337" transform="translate(-165.541 -311.011)"/><path id="Path_338" fill="#3f3d56" d="M329.031,800.076l4.664-6.517-4.676,7.233-.012.748c-.326-.007-.65-.023-.969-.044l.5-9.609,0-.075.009-.014.047-.907-4.688-7.251,4.7,6.57.011.193.38-7.26-4.013-7.493,4.062,6.218.4-15.052,0-.051v.05l-.066,11.869,4-4.705-4.012,5.728-.106,6.5,3.73-6.238-3.746,7.195-.059,3.614,5.416-8.683-5.436,9.944Z" data-name="Path 338" transform="translate(-169.252 -311.011)"/></g></svg>